<svg xmlns="http://www.w3.org/2000/svg" viewBox="0 0 24 24"
    xmlns:v="https://vecta.io/nano" width="inherit" height="inherit" fill="none">
    <path d="M19.389 5.407A17.68 17.68 0 0 0 14.91 4a13.14 13.14 0 0 0-.574 1.191c-1.67-.251-3.324-.251-4.963 0-.155-.373-.386-.842-.581-1.191a17.62 17.62 0 0 0-4.482 1.411C1.476 9.694.708 13.871 1.092 17.988c1.88 1.404 3.702 2.257 5.493 2.815.442-.609.837-1.256 1.176-1.937-.647-.246-1.267-.549-1.853-.902.155-.115.307-.235.454-.359 3.572 1.671 7.453 1.671 10.982 0 .149.124.301.244.454.359a11.54 11.54 0 0 1-1.856.903c.34.68.732 1.329 1.176 1.937 1.793-.558 3.616-1.411 5.496-2.816.451-4.773-.77-8.911-3.227-12.58zM8.248 15.456c-1.072 0-1.952-1.001-1.952-2.22s.861-2.222 1.952-2.222 1.97 1.001 1.952 2.222c.002 1.219-.861 2.22-1.952 2.22zm7.212 0c-1.072 0-1.952-1.001-1.952-2.22s.861-2.222 1.952-2.222 1.97 1.001 1.952 2.222c0 1.219-.86 2.22-1.952 2.22z" fill="#222"/>
</svg>