<svg width="131" height="31" viewBox="0 0 131 31" fill="none"
    xmlns="http://www.w3.org/2000/svg">
    <path d="M10.76 26.16C13.8533 26.16 15.4 24.84 15.4 22.2C15.4 21.08 14.8133 20.1333 13.64 19.36C12.7867 18.7733 11.6133 18.1467 10.12 17.48C8.65333 16.7867 7.54667 16.24 6.8 15.84C6.08 15.44 5.24 14.88 4.28 14.16C2.44 12.7467 1.52 10.9867 1.52 8.88C1.52 6.77333 2.33333 5.02666 3.96 3.64C5.61333 2.22667 7.84 1.52 10.64 1.52C13.44 1.52 16.4267 2.41333 19.6 4.2C19.6 6.12 19.4 8.2 19 10.44C18.1467 10.7067 16.88 10.84 15.2 10.84L14.04 6.08C13.0533 5.78667 11.9733 5.64 10.8 5.64C9.62667 5.64 8.72 5.89333 8.08 6.4C7.44 6.90667 7.12 7.66666 7.12 8.68C7.12 9.66667 7.61333 10.56 8.6 11.36C9.61333 12.1333 10.8267 12.8533 12.24 13.52C13.6533 14.16 14.6267 14.6133 15.16 14.88C15.6933 15.1467 16.3733 15.5467 17.2 16.08C18.0267 16.6133 18.6533 17.12 19.08 17.6C20.1733 18.88 20.72 20.3067 20.72 21.88C20.72 24.6533 19.8 26.7867 17.96 28.28C16.12 29.7733 13.72 30.52 10.76 30.52C9.18667 30.52 7.45333 30.2533 5.56 29.72C3.69333 29.16 2.10667 28.4533 0.8 27.6C0.853333 25.9733 1.06667 23.7733 1.44 21C2.50667 20.7867 3.78667 20.68 5.28 20.68L6.12 25.48C7.58667 25.9333 9.13333 26.16 10.76 26.16ZM31.0897 0.279999L32.0497 0.319998C32.0497 1.70666 31.8764 2.92 31.5297 3.96C31.4764 7 31.4497 9.28 31.4497 10.8C32.303 10.4267 33.2764 10.0667 34.3697 9.72C35.463 9.37333 36.143 9.2 36.4097 9.2C39.1297 9.2 41.0764 9.81333 42.2497 11.04C43.4497 12.2667 44.0497 14.2 44.0497 16.84C44.0497 17.1067 43.9164 20.2133 43.6497 26.16L46.7697 26.56C46.7697 27.7067 46.463 28.8533 45.8497 30H35.8897L35.5297 27.8C37.3164 27.08 38.463 26.6933 38.9697 26.64C38.9164 23.76 38.8497 21.2133 38.7697 19C38.6897 16.76 38.4764 15.28 38.1297 14.56C37.783 13.84 37.223 13.48 36.4497 13.48C35.703 13.48 34.8364 13.5733 33.8497 13.76C32.8897 13.92 32.143 14.12 31.6097 14.36L31.1697 26.16L34.2897 26.52C34.2897 27.6133 33.983 28.7733 33.3697 30H23.4097L23.0497 27.8C24.703 27.1867 25.903 26.7867 26.6497 26.6L25.8897 4.4C24.6364 4.26666 23.583 4.06667 22.7297 3.8C22.7297 3.13333 22.823 2.17333 23.0097 0.919998C24.583 0.493332 27.2764 0.279999 31.0897 0.279999ZM58.4972 26.56C59.4039 26.56 61.2439 25.9333 64.0172 24.68C64.6039 25.5333 65.0439 26.52 65.3372 27.64C63.8705 28.5467 62.4305 29.2533 61.0172 29.76C59.6305 30.24 58.6439 30.48 58.0572 30.48C54.8305 30.48 52.3772 29.5867 50.6972 27.8C49.0439 26.0133 48.2172 23.48 48.2172 20.2C48.2172 16.8933 49.0439 14.24 50.6972 12.24C52.3505 10.2133 54.8039 9.2 58.0572 9.2C60.6439 9.2 62.6172 10.04 63.9772 11.72C65.3372 13.4 66.0172 15.5867 66.0172 18.28C66.0172 18.84 65.6972 19.48 65.0572 20.2L53.5372 20C53.5905 22.1333 53.9905 23.76 54.7372 24.88C55.4839 26 56.7372 26.56 58.4972 26.56ZM57.6972 12.52C56.6839 12.52 55.7372 12.72 54.8572 13.12C54.2439 14.4 53.8572 15.5867 53.6972 16.68C55.7772 16.6 58.1372 16.5467 60.7772 16.52C60.6439 13.8533 59.6172 12.52 57.6972 12.52ZM78.9659 26.56C79.8726 26.56 81.7126 25.9333 84.4859 24.68C85.0726 25.5333 85.5126 26.52 85.8059 27.64C84.3393 28.5467 82.8993 29.2533 81.4859 29.76C80.0993 30.24 79.1126 30.48 78.5259 30.48C75.2993 30.48 72.8459 29.5867 71.1659 27.8C69.5126 26.0133 68.6859 23.48 68.6859 20.2C68.6859 16.8933 69.5126 14.24 71.1659 12.24C72.8193 10.2133 75.2726 9.2 78.5259 9.2C81.1126 9.2 83.0859 10.04 84.4459 11.72C85.8059 13.4 86.4859 15.5867 86.4859 18.28C86.4859 18.84 86.1659 19.48 85.5259 20.2L74.0059 20C74.0593 22.1333 74.4593 23.76 75.2059 24.88C75.9526 26 77.2059 26.56 78.9659 26.56ZM78.1659 12.52C77.1526 12.52 76.2059 12.72 75.3259 13.12C74.7126 14.4 74.3259 15.5867 74.1659 16.68C76.2459 16.6 78.6059 16.5467 81.2459 16.52C81.1126 13.8533 80.0859 12.52 78.1659 12.52ZM103.515 10.92L103.555 12.16C103.555 14.24 103.395 15.6 103.075 16.24C102.195 16.56 100.968 16.72 99.3947 16.72L98.1147 12.68C97.768 12.5467 97.288 12.48 96.6747 12.48C96.0614 12.48 95.5547 12.6667 95.1547 13.04C94.7814 13.4133 94.5947 13.8533 94.5947 14.36C94.5947 14.8667 94.7947 15.3333 95.1947 15.76C95.5947 16.16 96.008 16.48 96.4347 16.72C96.8614 16.96 97.4747 17.28 98.2747 17.68C99.1014 18.0533 99.7147 18.3467 100.115 18.56C100.541 18.7733 101.075 19.0933 101.715 19.52C102.381 19.9467 102.888 20.3467 103.235 20.72C104.088 21.7333 104.515 22.84 104.515 24.04C104.515 26.0933 103.728 27.68 102.155 28.8C100.608 29.92 98.7014 30.48 96.4347 30.48C95.2347 30.48 93.9147 30.2667 92.4747 29.84C91.0614 29.4133 89.8614 28.84 88.8747 28.12C88.8747 26.2 89.0614 24.4133 89.4347 22.76C90.5014 22.6267 91.368 22.56 92.0347 22.56C92.7014 22.56 93.1547 22.5733 93.3947 22.6L93.8747 26.48C94.5414 26.72 95.3414 26.84 96.2747 26.84C97.208 26.84 97.9414 26.6533 98.4747 26.28C99.0347 25.9067 99.3147 25.3867 99.3147 24.72C99.3147 24.0267 99.008 23.4533 98.3947 23C97.7814 22.5467 96.9414 22.08 95.8747 21.6C94.808 21.0933 93.9814 20.68 93.3947 20.36C92.808 20.0133 92.1814 19.5733 91.5147 19.04C90.1547 18 89.4747 16.72 89.4747 15.2C89.4747 13.3067 90.128 11.84 91.4347 10.8C92.768 9.73333 94.5547 9.2 96.7947 9.2C99.0347 9.2 101.275 9.77333 103.515 10.92ZM114.801 0.279999L115.761 0.319998C115.761 1.70666 115.587 2.92 115.241 3.96C115.187 7 115.161 9.28 115.161 10.8C116.014 10.4267 116.987 10.0667 118.081 9.72C119.174 9.37333 119.854 9.2 120.121 9.2C122.841 9.2 124.787 9.81333 125.961 11.04C127.161 12.2667 127.761 14.2 127.761 16.84C127.761 17.1067 127.627 20.2133 127.361 26.16L130.481 26.56C130.481 27.7067 130.174 28.8533 129.561 30H119.601L119.241 27.8C121.027 27.08 122.174 26.6933 122.681 26.64C122.627 23.76 122.561 21.2133 122.481 19C122.401 16.76 122.187 15.28 121.841 14.56C121.494 13.84 120.934 13.48 120.161 13.48C119.414 13.48 118.547 13.5733 117.561 13.76C116.601 13.92 115.854 14.12 115.321 14.36L114.881 26.16L118.001 26.52C118.001 27.6133 117.694 28.7733 117.081 30H107.121L106.761 27.8C108.414 27.1867 109.614 26.7867 110.361 26.6L109.601 4.4C108.347 4.26666 107.294 4.06667 106.441 3.8C106.441 3.13333 106.534 2.17333 106.721 0.919998C108.294 0.493332 110.987 0.279999 114.801 0.279999Z" fill="black"/>
</svg>
