<svg viewBox="0 0 1275 328" fill="none"
    xmlns="http://www.w3.org/2000/svg">
    <path d="M107.911 280.709C141.425 280.709 158.182 266.392 158.182 237.757C158.182 225.608 151.826 215.34 139.114 206.952C129.868 200.589 117.156 193.792 100.977 186.561C85.0862 179.041 73.0961 173.111 65.0065 168.772C57.2057 164.434 48.1048 158.36 37.7037 150.55C17.7684 135.22 7.80077 116.131 7.80077 93.2804C7.80077 70.4303 16.6128 51.485 34.2367 36.4444C52.1496 21.1146 76.2742 13.4497 106.611 13.4497C136.947 13.4497 169.306 23.1393 203.687 42.5185C203.687 63.3439 201.52 85.9048 197.186 110.201C187.941 113.093 174.217 114.54 156.016 114.54L143.448 62.91C132.758 59.7284 121.056 58.1376 108.344 58.1376C95.6317 58.1376 85.8085 60.8854 78.8745 66.3809C71.9405 71.8765 68.4735 80.1199 68.4735 91.1111C68.4735 101.813 73.8184 111.503 84.5084 120.18C95.4873 128.568 108.633 136.377 123.946 143.608C139.258 150.55 149.804 155.467 155.582 158.36C161.36 161.252 168.728 165.591 177.684 171.376C186.641 177.16 193.43 182.656 198.053 187.862C209.899 201.746 215.821 217.22 215.821 234.286C215.821 264.367 205.854 287.506 185.918 303.704C165.983 319.901 139.981 328 107.911 328C90.8646 328 72.0849 325.108 51.5718 319.323C31.3476 313.249 14.157 305.584 0 296.328C0.577835 278.684 2.88918 254.822 6.93402 224.741C18.4907 222.427 32.3588 221.27 48.5382 221.27L57.6391 273.333C73.5295 278.25 90.2867 280.709 107.911 280.709Z" fill="#F48E57"/>
    <path d="M302.168 0L312.569 0.433857C312.569 15.4744 310.691 28.6349 306.935 39.9153C306.358 72.8889 306.069 97.619 306.069 114.106C315.314 110.056 325.86 106.152 337.705 102.392C349.551 98.6314 356.918 96.7513 359.807 96.7513C389.277 96.7513 410.368 103.404 423.08 116.709C436.082 130.014 442.582 150.984 442.582 179.619C442.582 182.511 441.138 216.208 438.248 280.709L472.052 285.048C472.052 297.485 468.729 309.922 462.084 322.36H354.173L350.273 298.497C369.631 290.688 382.054 286.494 387.543 285.915C386.966 254.677 386.243 227.055 385.377 203.048C384.51 178.751 382.198 162.698 378.443 154.889C374.687 147.079 368.619 143.175 360.241 143.175C352.151 143.175 342.761 144.187 332.071 146.212C321.67 147.947 313.581 150.116 307.802 152.72L303.035 280.709L336.838 284.614C336.838 296.473 333.516 309.055 326.871 322.36H218.96L215.06 298.497C232.973 291.845 245.974 287.506 254.064 285.481L245.829 44.6878C232.25 43.2416 220.838 41.0723 211.593 38.1799C211.593 30.9489 212.604 20.5362 214.626 6.94179C231.672 2.31393 260.853 0 302.168 0Z" fill="#F48E57"/>
    <path d="M573.11 285.048C582.933 285.048 602.868 278.25 632.916 264.656C639.272 273.912 644.039 284.614 647.217 296.762C631.327 306.596 615.725 314.261 600.412 319.757C585.389 324.963 574.699 327.566 568.343 327.566C533.384 327.566 506.803 317.877 488.601 298.497C470.688 279.118 461.732 251.64 461.732 216.063C461.732 180.198 470.688 151.418 488.601 129.725C506.514 107.742 533.095 96.7513 568.343 96.7513C596.368 96.7513 617.748 105.862 632.482 124.085C647.217 142.307 654.585 166.025 654.585 195.238C654.585 201.312 651.118 208.254 644.184 216.063L519.371 213.894C519.949 237.033 524.283 254.677 532.372 266.825C540.462 278.974 554.041 285.048 573.11 285.048ZM564.442 132.762C553.463 132.762 543.207 134.931 533.673 139.27C527.027 153.153 522.838 166.025 521.105 177.884C543.64 177.016 569.209 176.437 597.812 176.148C596.368 147.224 585.244 132.762 564.442 132.762Z" fill="#F48E57"/>
    <path d="M768.874 285.048C778.697 285.048 798.632 278.25 828.68 264.656C835.036 273.912 839.803 284.614 842.981 296.762C827.091 306.596 811.489 314.261 796.177 319.757C781.153 324.963 770.463 327.566 764.107 327.566C729.148 327.566 702.567 317.877 684.366 298.497C666.453 279.118 657.496 251.64 657.496 216.063C657.496 180.198 666.453 151.418 684.366 129.725C702.278 107.742 728.859 96.7513 764.107 96.7513C792.132 96.7513 813.512 105.862 828.247 124.085C842.981 142.307 850.349 166.025 850.349 195.238C850.349 201.312 846.882 208.254 839.948 216.063L715.135 213.894C715.713 237.033 720.047 254.677 728.137 266.825C736.226 278.974 749.805 285.048 768.874 285.048ZM760.206 132.762C749.228 132.762 738.971 134.931 729.437 139.27C722.792 153.153 718.602 166.025 716.869 177.884C739.404 177.016 764.974 176.437 793.576 176.148C792.132 147.224 781.009 132.762 760.206 132.762Z" fill="#F48E57"/>
    <path d="M1008.84 115.407L1009.28 128.857C1009.28 151.418 1007.54 166.169 1004.08 173.111C994.541 176.582 981.251 178.317 964.205 178.317L950.337 134.497C946.581 133.051 941.38 132.328 934.735 132.328C928.09 132.328 922.601 134.353 918.267 138.402C914.222 142.451 912.2 147.224 912.2 152.72C912.2 158.215 914.367 163.277 918.7 167.905C923.034 172.243 927.512 175.714 932.135 178.317C936.758 180.921 943.403 184.392 952.07 188.73C961.027 192.78 967.672 195.961 972.006 198.275C976.628 200.589 982.407 204.06 989.341 208.688C996.564 213.316 1002.05 217.654 1005.81 221.704C1015.05 232.695 1019.68 244.698 1019.68 257.714C1019.68 279.986 1011.15 297.196 994.108 309.344C977.351 321.492 956.693 327.566 932.135 327.566C919.134 327.566 904.832 325.252 889.231 320.624C873.918 315.996 860.917 309.778 850.227 301.968C850.227 281.143 852.249 261.764 856.294 243.831C867.851 242.384 877.241 241.661 884.464 241.661C891.687 241.661 896.598 241.806 899.198 242.095L904.399 284.18C911.622 286.783 920.289 288.085 930.401 288.085C940.514 288.085 948.459 286.06 954.237 282.011C960.304 277.961 963.338 272.321 963.338 265.09C963.338 257.57 960.016 251.351 953.37 246.434C946.725 241.517 937.624 236.455 926.068 231.249C914.511 225.753 905.555 221.27 899.198 217.799C892.842 214.039 886.053 209.266 878.83 203.481C864.095 192.201 856.728 178.317 856.728 161.831C856.728 141.295 863.806 125.386 877.963 114.106C892.409 102.536 911.766 96.7513 936.035 96.7513C960.304 96.7513 984.574 102.97 1008.84 115.407Z" fill="#F48E57"/>
    <path d="M1105.12 0L1115.52 0.433857C1115.52 15.4744 1113.64 28.6349 1109.88 39.9153C1109.31 72.8889 1109.02 97.619 1109.02 114.106C1118.26 110.056 1128.81 106.152 1140.65 102.392C1152.5 98.6314 1159.87 96.7513 1162.76 96.7513C1192.23 96.7513 1213.32 103.404 1226.03 116.709C1239.03 130.014 1245.53 150.984 1245.53 179.619C1245.53 182.511 1244.09 216.208 1241.2 280.709L1275 285.048C1275 297.485 1271.68 309.922 1265.03 322.36H1157.12L1153.22 298.497C1172.58 290.688 1185 286.494 1190.49 285.915C1189.91 254.677 1189.19 227.055 1188.32 203.048C1187.46 178.751 1185.15 162.698 1181.39 154.889C1177.63 147.079 1171.57 143.175 1163.19 143.175C1155.1 143.175 1145.71 144.187 1135.02 146.212C1124.62 147.947 1116.53 150.116 1110.75 152.72L1105.98 280.709L1139.79 284.614C1139.79 296.473 1136.46 309.055 1129.82 322.36H1021.91L1018.01 298.497C1035.92 291.845 1048.92 287.506 1057.01 285.481L1048.78 44.6878C1035.2 43.2416 1023.79 41.0723 1014.54 38.1799C1014.54 30.9489 1015.55 20.5362 1017.57 6.94179C1034.62 2.31393 1063.8 0 1105.12 0Z" fill="#F48E57"/>
</svg>
