<svg xmlns="http://www.w3.org/2000/svg" viewBox="0 0 64 64"
    xmlns:v="https://vecta.io/nano" width="inherit" height="inherit" fill="none">
    <circle cx="32" cy="32" r="32" fill="#a6fa9f"/>
    <g clip-path="url(#A)">
        <path d="M30.076 27.722v5.953l-.412-.041c-2.758-.55-5.427 1.354-5.817 4.155-.401 2.864 1.601 5.542 4.316 5.77 2.953.25 5.407-1.932 5.42-4.916l.013-22.835v-.802h5.787c.371 5.053 3.263 7.613 7.983 8.317v5.798c-2.898-.013-5.456-.965-7.896-2.634-.013.27-.03.47-.03.669l-.006 11.419c-.034 5.368-3.698 9.895-8.834 10.797-4.044.711-7.507-.556-10.129-3.784-2.671-3.286-3.231-7.05-1.724-11.04 1.743-4.614 6.329-7.404 11.116-6.883.053.004.106.026.212.056z" fill="#222"/>
    </g>
    <defs>
        <clipPath id="A">
            <path fill="#fff" transform="translate(17.92 15.003)" d="M0 0h29.44v34.56H0z"/>
        </clipPath>
    </defs>
</svg>